Normalized EMG Linear Envelopes
nRows=149
nColumns=4

endheader
time	 med_gas_r	  soleus_r	 tib_ant_r	
2.75	  0.001900	  0.016782	  0.001202	
2.8125	  0.001809	  0.016361	  0.001256	
2.875	  0.001758	  0.016035	  0.001291	
2.9375	  0.001755	  0.015889	  0.001295	
3	  0.001781	  0.015942	  0.001280	
3.0625	  0.001839	  0.016111	  0.001274	
3.125	  0.001966	  0.016283	  0.001285	
3.1875	  0.002193	  0.016374	  0.001291	
3.25	  0.002481	  0.016302	  0.001281	
3.3125	  0.002671	  0.015984	  0.001267	
3.375	  0.002607	  0.015444	  0.001256	
3.4375	  0.002315	  0.014847	  0.001252	
3.5	  0.001976	  0.014360	  0.001258	
3.5625	  0.001748	  0.014020	  0.001271	
3.625	  0.001679	  0.013754	  0.001280	
3.6875	  0.001726	  0.013446	  0.001276	
3.75	  0.001799	  0.013040	  0.001258	
3.8125	  0.001830	  0.012619	  0.001244	
3.875	  0.001844	  0.012388	  0.001260	
3.9375	  0.001931	  0.012708	  0.001320	
4	  0.002192	  0.014167	  0.001396	
4.0625	  0.002727	  0.017438	  0.001432	
4.125	  0.003540	  0.022516	  0.001388	
4.1875	  0.004341	  0.027542	  0.001263	
4.25	  0.005024	  0.029766	  0.001098	
4.3125	  0.006997	  0.029996	  0.001029	
4.375	  0.013761	  0.034998	  0.001325	
4.4375	  0.029350	  0.053655	  0.002299	
4.5	  0.055349	  0.091478	  0.004097	
4.5625	  0.088517	  0.146541	  0.006444	
4.625	  0.121458	  0.207068	  0.008679	
4.6875	  0.147380	  0.256904	  0.010289	
4.75	  0.166245	  0.287969	  0.011396	
4.8125	  0.185078	  0.304080	  0.012495	
4.875	  0.209425	  0.313614	  0.013939	
4.9375	  0.236990	  0.324799	  0.015927	
5	  0.262299	  0.342976	  0.018540	
5.0625	  0.283521	  0.365657	  0.021382	
5.125	  0.302937	  0.385404	  0.023734	
5.1875	  0.323166	  0.399778	  0.025323	
5.25	  0.344611	  0.414236	  0.026564	
5.3125	  0.368696	  0.434643	  0.028143	
5.375	  0.399462	  0.459736	  0.030648	
5.4375	  0.436342	  0.482149	  0.034183	
5.5	  0.470527	  0.494548	  0.038038	
5.5625	  0.491961	  0.495062	  0.041220	
5.625	  0.497119	  0.488687	  0.043370	
5.6875	  0.491909	  0.482893	  0.044582	
5.75	  0.487988	  0.484037	  0.044752	
5.8125	  0.493314	  0.496976	  0.044074	
5.875	  0.506711	  0.521486	  0.043803	
5.9375	  0.520817	  0.550108	  0.045381	
6	  0.526789	  0.575540	  0.048619	
6.0625	  0.519648	  0.598747	  0.051874	
6.125	  0.503355	  0.623583	  0.054078	
6.1875	  0.487066	  0.644408	  0.055244	
6.25	  0.477593	  0.647939	  0.055544	
6.3125	  0.480235	  0.628382	  0.055256	
6.375	  0.499026	  0.594473	  0.054707	
6.4375	  0.529428	  0.561507	  0.053629	
6.5	  0.559645	  0.538185	  0.052009	
6.5625	  0.582088	  0.522113	  0.051516	
6.625	  0.597146	  0.509546	  0.054164	
6.6875	  0.610714	  0.503168	  0.059649	
6.75	  0.630019	  0.505536	  0.065499	
6.8125	  0.653826	  0.515700	  0.069584	
6.875	  0.671939	  0.536621	  0.071561	
6.9375	  0.678502	  0.570440	  0.072101	
7	  0.676020	  0.605740	  0.071546	
7.0625	  0.666450	  0.627721	  0.069857	
7.125	  0.647601	  0.635521	  0.067408	
7.1875	  0.622460	  0.636294	  0.065005	
7.25	  0.605393	  0.635922	  0.063445	
7.3125	  0.606210	  0.639822	  0.063179	
7.375	  0.616848	  0.649374	  0.063823	
7.4375	  0.629364	  0.661115	  0.064527	
7.5	  0.649420	  0.673053	  0.065090	
7.5625	  0.677702	  0.684337	  0.065629	
7.625	  0.698945	  0.690922	  0.065247	
7.6875	  0.699698	  0.687679	  0.062693	
7.75	  0.681781	  0.675218	  0.058741	
7.8125	  0.653520	  0.662222	  0.056297	
7.875	  0.618639	  0.659035	  0.057429	
7.9375	  0.580044	  0.670216	  0.061405	
8	  0.548416	  0.692974	  0.065926	
8.0625	  0.537417	  0.720055	  0.069242	
8.125	  0.552398	  0.742670	  0.070897	
8.1875	  0.589261	  0.753492	  0.071262	
8.25	  0.638063	  0.751509	  0.070918	
8.3125	  0.686075	  0.740147	  0.070681	
8.375	  0.724671	  0.721858	  0.071766	
8.4375	  0.752873	  0.704273	  0.074837	
8.5	  0.774158	  0.702614	  0.078926	
8.5625	  0.790982	  0.725573	  0.082339	
8.625	  0.798995	  0.764810	  0.084328	
8.6875	  0.790501	  0.797602	  0.085046	
8.75	  0.765603	  0.803408	  0.084578	
8.8125	  0.732340	  0.785683	  0.082830	
8.875	  0.697697	  0.763572	  0.079796	
8.9375	  0.667940	  0.741147	  0.075469	
9	  0.652709	  0.709388	  0.070142	
9.0625	  0.656318	  0.673506	  0.065027	
9.125	  0.670991	  0.652698	  0.061849	
9.1875	  0.687783	  0.655059	  0.061199	
9.25	  0.701544	  0.664171	  0.061498	
9.3125	  0.699533	  0.649437	  0.060158	
9.375	  0.661833	  0.588610	  0.056168	
9.4375	  0.578291	  0.481387	  0.051869	
9.5	  0.457831	  0.347286	  0.052211	
9.5625	  0.323396	  0.217345	  0.060445	
9.625	  0.199843	  0.120280	  0.072659	
9.6875	  0.103202	  0.065991	  0.079012	
9.75	  0.039027	  0.043310	  0.073001	
9.8125	  0.005302	  0.034829	  0.057045	
9.875	 -0.006115	  0.030365	  0.038228	
9.9375	 -0.005830	  0.027309	  0.022250	
10	 -0.001841	  0.025035	  0.011682	
10.0625	  0.001877	  0.023065	  0.006650	
10.125	  0.004049	  0.021966	  0.005652	
10.1875	  0.004764	  0.022456	  0.006501	
10.25	  0.004602	  0.023697	  0.007453	
10.3125	  0.004160	  0.023768	  0.007742	
10.375	  0.003801	  0.021795	  0.007286	
10.4375	  0.003595	  0.018826	  0.006363	
10.5	  0.003444	  0.016431	  0.005403	
10.5625	  0.003268	  0.015181	  0.004684	
10.625	  0.003090	  0.014733	  0.004257	
10.6875	  0.002965	  0.014624	  0.004060	
10.75	  0.002917	  0.014605	  0.003970	
10.8125	  0.002974	  0.014587	  0.003888	
10.875	  0.003181	  0.014541	  0.003814	
10.9375	  0.003503	  0.014456	  0.003791	
11	  0.003731	  0.014317	  0.003790	
11.0625	  0.003651	  0.014168	  0.003724	
11.125	  0.003299	  0.014196	  0.003576	
11.1875	  0.002904	  0.014632	  0.003407	
11.25	  0.002642	  0.015550	  0.003243	
11.3125	  0.002543	  0.016686	  0.003053	
11.375	  0.002534	  0.017388	  0.002824	
11.4375	  0.002513	  0.017102	  0.002590	
11.5	  0.002434	  0.016003	  0.002381	
11.5625	  0.002347	  0.014818	  0.002185	
11.625	  0.002316	  0.014086	  0.001992	
11.6875	  0.002348	  0.013849	  0.001833	
11.75	  0.002390	  0.013858	  0.001732	
11.8125	  0.002379	  0.013878	  0.001669	
11.875	  0.002283	  0.013882	  0.001617	
11.9375	  0.002112	  0.013954	  0.001578	
12	  0.001901	  0.014107	  0.001555	
